# xmcd
#
# Track frame offsets: 
#        150
#        21770
#        47332
#        84313
#        104960
#        121974
#        148929
#        167232
#        191866
#        211250
#
# Disc length: 3080 seconds
#
# Revision: 0
# Processed by: cddbd v1.5.1PL2 Copyright (c) Steve Scherf et al.
# Submitted via: ExactAudioCopy v0.90b4
#
DISCID=8f0c060a
DTITLE=Patti La Belle and Peabo Bryson - BACK KCAB
DYEAR=2004
DGENRE=Soul
TTITLE0=If Only You Knew
TTITLE1=I'm In Love Again
TTITLE2=If You Don't Know Me By Know
TTITLE3=I Can't Forget You
TTITLE4=Over The Rainbow
TTITLE5=Show and Tell
TTITLE6=You're Lookin' Like Love To Me
TTITLE7=All My Love
TTITLE8=We Don't Have To Talk
TTITLE9=Give Me Your Love
EXTD=
EXTT0=
EXTT1=
EXTT2=
EXTT3=
EXTT4=
EXTT5=
EXTT6=
EXTT7=
EXTT8=
EXTT9=
PLAYORDER=
